<?xml version="1.0" encoding="UTF-8" standalone="no"?>
<!DOCTYPE svg PUBLIC "-//W3C//DTD SVG 1.1//EN" "http://www.w3.org/Graphics/SVG/1.1/DTD/svg11.dtd">
<svg version="1.1" xmlns="http://www.w3.org/2000/svg" xmlns:xlink="http://www.w3.org/1999/xlink" preserveAspectRatio="xMidYMid meet" viewBox="0 0 640 640" width="640" height="640"><defs><path d="M320.68 26.61C146.33 26.61 5 158.12 5 320.34C5 482.56 146.33 614.07 320.68 614.07C495.02 614.07 636.36 482.56 636.36 320.34C636.36 158.12 495.02 26.61 320.68 26.61Z" id="c5dXtmbWD"></path><path d="M550.19 499.85C550.2 499.67 550.26 499.51 550.26 499.33C550.26 497.19 549.43 495.24 548.1 493.68C547.87 491.96 547.16 490.39 546.05 489.09C545.83 487.37 545.12 485.8 544.01 484.5C543.8 482.78 543.08 481.21 541.97 479.91C541.75 478.19 541.04 476.62 539.93 475.32C539.71 473.6 539 472.03 537.89 470.74C537.67 469.01 536.95 467.44 535.84 466.15C535.63 464.42 534.92 462.85 533.81 461.56C533.59 459.83 532.88 458.26 531.77 456.97C531.55 455.25 530.84 453.67 529.73 452.38C529.52 450.66 528.8 449.08 527.69 447.79C527.47 446.07 526.75 444.49 525.64 443.2C525.43 441.48 524.71 439.9 523.6 438.61C523.39 436.89 522.67 435.31 521.56 434.02C521.35 432.3 520.63 430.72 519.52 429.43C519.31 427.71 518.59 426.14 517.49 424.84C517.26 423.12 516.55 421.54 515.44 420.25C515.31 419.18 514.98 418.16 514.48 417.23C514.5 417.06 514.54 416.9 514.54 416.72C514.54 414.58 513.71 412.63 512.38 411.08C512.16 409.36 511.45 407.78 510.34 406.49C510.12 404.77 509.41 403.19 508.3 401.9C508.08 400.18 507.36 398.6 506.25 397.31C506.04 395.59 505.32 394.01 504.21 392.72C504 391 503.28 389.43 502.18 388.13C501.96 386.41 501.25 384.83 500.14 383.54C499.92 381.82 499.21 380.24 498.1 378.95C497.87 377.23 497.16 375.65 496.05 374.36C495.83 372.64 495.12 371.06 494.01 369.77C493.79 368.05 493.08 366.48 491.97 365.18C491.75 363.46 491.04 361.89 489.93 360.59C489.71 358.87 489 357.3 487.9 356C487.67 354.28 486.96 352.71 485.85 351.41C485.63 349.69 484.92 348.12 483.81 346.82C483.59 345.1 482.88 343.53 481.77 342.23C481.55 340.51 480.84 338.94 479.73 337.64C479.51 335.92 478.8 334.35 477.69 333.05C477.56 331.98 477.23 330.97 476.73 330.03C476.74 329.86 476.79 329.7 476.79 329.53C476.79 327.39 475.96 325.44 474.63 323.88C474.42 322.16 473.7 320.59 472.6 319.29C472.38 317.57 471.66 316 470.55 314.7C470.34 312.98 469.62 311.41 468.51 310.11C468.3 308.39 467.58 306.82 466.47 305.52C466.26 303.8 465.54 302.23 464.43 300.93C464.21 299.21 463.5 297.64 462.38 296.34C462.17 294.62 461.46 293.05 460.34 291.75C460.13 290.03 459.42 288.46 458.31 287.16C458.09 285.44 457.38 283.88 456.27 282.58C456.06 280.85 455.34 279.28 454.23 277.99C454.01 276.26 453.3 274.69 452.19 273.4C451.97 271.67 451.26 270.11 450.15 268.81C449.93 267.09 449.22 265.52 448.11 264.22C447.89 262.5 447.18 260.93 446.06 259.63C445.85 257.91 445.14 256.34 444.02 255.04C443.8 253.32 443.09 251.75 441.98 250.45C441.85 249.38 441.52 248.37 441.03 247.44C441.04 247.26 441.09 247.1 441.09 246.92C441.09 244.78 440.26 242.83 438.93 241.27C438.71 239.55 437.99 237.98 436.89 236.68C436.67 234.96 435.95 233.39 434.85 232.09C434.62 230.37 433.91 228.8 432.8 227.5C432.58 225.78 431.87 224.21 430.76 222.91C430.54 221.19 429.83 219.62 428.72 218.32C428.5 216.6 427.78 215.03 426.68 213.73C426.46 212.01 425.75 210.45 424.64 209.15C424.42 207.42 423.7 205.85 422.6 204.55C422.38 202.83 421.66 201.26 420.56 199.96C420.34 198.24 419.62 196.67 418.52 195.37C418.3 193.65 417.58 192.08 416.47 190.78C416.26 189.06 415.54 187.49 414.43 186.2C414.21 184.47 413.49 182.9 412.39 181.61C412.17 179.88 411.46 178.32 410.35 177.02C410.14 175.3 409.42 173.73 408.31 172.43C408.1 170.71 407.38 169.14 406.27 167.84C406.06 166.12 405.34 164.55 404.23 163.25C403.6 158.69 399.47 155.12 394.43 155.12C379.64 155.12 261.26 155.12 246.46 155.12C241.03 155.12 236.6 159.25 236.6 164.29C236.6 165.76 237 167.14 237.68 168.37C237.67 168.54 237.62 168.71 237.62 168.88C237.62 171.02 238.44 172.97 239.78 174.53C240 176.25 240.71 177.82 241.82 179.12C242.04 180.84 242.75 182.41 243.86 183.71C244.07 185.43 244.79 187 245.9 188.3C246.11 190.02 246.83 191.59 247.94 192.89C248.16 194.61 248.88 196.18 249.98 197.48C250.2 199.2 250.92 200.77 252.02 202.07C252.24 203.79 252.96 205.36 254.07 206.66C254.28 208.38 255 209.95 256.11 211.25C256.16 211.65 256.22 212.04 256.33 212.42C256.33 231.55 256.33 327.19 256.33 499.33L256.33 501.68C256.33 503.09 256.33 503.87 256.33 504.03C256.33 513.98 258.97 523.33 263.6 531.57C264.81 535.69 266.46 539.61 268.53 543.33C269.75 547.44 271.39 551.38 273.47 555.09C274.68 559.2 276.33 563.13 278.4 566.84C279.96 572.15 282.29 577.15 285.27 581.75C286.12 583.89 287.1 585.99 288.23 588C288.87 590.17 289.64 592.29 290.53 594.35C300.45 595.22 310.48 595.71 320.64 595.71C411.59 595.71 493.49 559.87 551.11 502.61C550.96 501.64 550.66 500.7 550.19 499.85Z" id="a1b6Oc0ySq"></path><path d="M256.33 499.33C256.33 532.28 285.03 558.99 320.45 558.99C355.86 558.99 384.57 532.28 384.57 499.33C384.57 477.6 384.57 368.99 384.57 173.47L256.33 173.47C256.33 368.99 256.33 477.6 256.33 499.33Z" id="c14aa83MlY"></path><path d="M364.84 499.33C364.84 522.1 344.93 540.63 320.45 540.63C295.97 540.63 276.06 522.1 276.06 499.33C276.06 493.21 276.06 462.61 276.06 407.54L364.84 407.54C364.84 462.61 364.84 493.21 364.84 499.33Z" id="b4xQQFBdDJ"></path><path d="M280.99 219.37C278.26 219.37 276.06 217.31 276.06 214.78C276.06 212.25 278.26 210.19 280.99 210.19C284.44 210.19 312.06 210.19 315.51 210.19C318.24 210.19 320.45 212.25 320.45 214.78C320.45 217.31 318.24 219.37 315.51 219.37C308.61 219.37 284.44 219.37 280.99 219.37Z" id="b7MEcBMOH"></path><path d="M280.99 237.73C278.26 237.73 276.06 235.67 276.06 233.14C276.06 230.6 278.26 228.55 280.99 228.55C281.97 228.55 289.87 228.55 290.85 228.55C293.58 228.55 295.79 230.6 295.79 233.14C295.79 235.67 293.58 237.73 290.85 237.73C288.88 237.73 281.97 237.73 280.99 237.73Z" id="bvA8U6VTj"></path><path d="M280.99 256.08C278.26 256.08 276.06 254.03 276.06 251.49C276.06 248.96 278.26 246.91 280.99 246.91C284.44 246.91 312.06 246.91 315.51 246.91C318.24 246.91 320.45 248.96 320.45 251.49C320.45 254.03 318.24 256.08 315.51 256.08C308.61 256.08 284.44 256.08 280.99 256.08Z" id="bfgnOPWpO"></path><path d="M280.99 274.44C278.26 274.44 276.06 272.39 276.06 269.85C276.06 267.32 278.26 265.26 280.99 265.26C281.97 265.26 289.87 265.26 290.85 265.26C293.58 265.26 295.79 267.32 295.79 269.85C295.79 272.39 293.58 274.44 290.85 274.44C288.88 274.44 281.97 274.44 280.99 274.44Z" id="eq0q8wb2L"></path><path d="M280.99 292.8C278.26 292.8 276.06 290.74 276.06 288.21C276.06 285.68 278.26 283.62 280.99 283.62C284.44 283.62 312.06 283.62 315.51 283.62C318.24 283.62 320.45 285.68 320.45 288.21C320.45 290.74 318.24 292.8 315.51 292.8C308.61 292.8 284.44 292.8 280.99 292.8Z" id="c88Ge6Pio9"></path><path d="M280.99 311.16C278.26 311.16 276.06 309.1 276.06 306.57C276.06 304.04 278.26 301.98 280.99 301.98C281.97 301.98 289.87 301.98 290.85 301.98C293.58 301.98 295.79 304.04 295.79 306.57C295.79 309.1 293.58 311.16 290.85 311.16C288.88 311.16 281.97 311.16 280.99 311.16Z" id="c3mp2VmvMp"></path><path d="M280.99 329.52C278.26 329.52 276.06 327.46 276.06 324.93C276.06 322.39 278.26 320.34 280.99 320.34C284.44 320.34 312.06 320.34 315.51 320.34C318.24 320.34 320.45 322.39 320.45 324.93C320.45 327.46 318.24 329.52 315.51 329.52C308.61 329.52 284.44 329.52 280.99 329.52Z" id="a1C0Vb1TgS"></path><path d="M280.99 347.87C278.26 347.87 276.06 345.82 276.06 343.28C276.06 340.75 278.26 338.7 280.99 338.7C281.97 338.7 289.87 338.7 290.85 338.7C293.58 338.7 295.79 340.75 295.79 343.28C295.79 345.82 293.58 347.87 290.85 347.87C288.88 347.87 281.97 347.87 280.99 347.87Z" id="c7ymVBP67K"></path><path d="M280.99 366.23C278.26 366.23 276.06 364.18 276.06 361.64C276.06 359.11 278.26 357.05 280.99 357.05C284.44 357.05 312.06 357.05 315.51 357.05C318.24 357.05 320.45 359.11 320.45 361.64C320.45 364.18 318.24 366.23 315.51 366.23C308.61 366.23 284.44 366.23 280.99 366.23Z" id="c1eVmeAN5E"></path><path d="M280.99 384.59C278.26 384.59 276.06 382.53 276.06 380C276.06 377.47 278.26 375.41 280.99 375.41C281.97 375.41 289.87 375.41 290.85 375.41C293.58 375.41 295.79 377.47 295.79 380C295.79 382.53 293.58 384.59 290.85 384.59C288.88 384.59 281.97 384.59 280.99 384.59Z" id="b7msaq8Is4"></path><path d="M359.91 122.99C354.46 122.99 350.04 127.1 350.04 132.17C350.04 137.24 354.46 141.35 359.91 141.35C365.36 141.35 369.77 137.24 369.77 132.17C369.77 127.1 365.36 122.99 359.91 122.99Z" id="ecVBg7Ajo"></path><path d="M409.23 49.56C403.78 49.56 399.37 53.67 399.37 58.74C399.37 63.81 403.78 67.91 409.23 67.91C414.68 67.91 419.1 63.81 419.1 58.74C419.1 53.67 414.68 49.56 409.23 49.56Z" id="dxkRttQzy"></path><path d="M409.23 95.45C398.34 95.45 389.5 103.67 389.5 113.81C389.5 123.95 398.34 132.17 409.23 132.17C420.13 132.17 428.96 123.95 428.96 113.81C428.96 103.67 420.13 95.45 409.23 95.45Z" id="a4tsQDV7La"></path><path d="M364.84 63.33C356.67 63.33 350.04 69.49 350.04 77.09C350.04 84.7 356.67 90.86 364.84 90.86C373.01 90.86 379.64 84.7 379.64 77.09C379.64 69.49 373.01 63.33 364.84 63.33Z" id="d21ycZwfyd"></path><path d="M394.43 173.47C379.64 173.47 261.26 173.47 246.46 173.47C241.03 173.47 236.6 169.34 236.6 164.29C236.6 164.29 236.6 164.29 236.6 164.29C236.6 159.25 241.03 155.12 246.46 155.12C261.26 155.12 379.64 155.12 394.43 155.12C399.86 155.12 404.3 159.25 404.3 164.29C404.3 164.29 404.3 164.29 404.3 164.29C401.34 170.41 398.05 173.47 394.43 173.47Z" id="g3b0oMfiss"></path><path d="M384.57 173.47C384.57 173.47 384.57 173.47 384.57 173.47C384.57 176.23 384.57 177.76 384.57 178.06C384.57 178.06 384.57 178.06 384.57 178.06C307.62 178.06 264.87 178.06 256.33 178.06C256.33 178.06 256.33 178.06 256.33 178.06C256.33 175.31 256.33 173.78 256.33 173.47C256.33 173.47 256.33 173.47 256.33 173.47C333.27 173.47 376.02 173.47 384.57 173.47Z" id="a3vos1lgpX"></path></defs><g><g><g><use xlink:href="#c5dXtmbWD" opacity="1" fill="#878bf7" fill-opacity="1"></use><g><use xlink:href="#c5dXtmbWD" opacity="1" fill-opacity="0" stroke="#000000" stroke-width="1" stroke-opacity="0"></use></g></g><g><use xlink:href="#a1b6Oc0ySq" opacity="1" fill="#cccdfb" fill-opacity="1"></use><g><use xlink:href="#a1b6Oc0ySq" opacity="1" fill-opacity="0" stroke="#000000" stroke-width="1" stroke-opacity="0"></use></g></g><g><use xlink:href="#c14aa83MlY" opacity="1" fill="#f5f5f5" fill-opacity="1"></use><g><use xlink:href="#c14aa83MlY" opacity="1" fill-opacity="0" stroke="#000000" stroke-width="1" stroke-opacity="0"></use></g></g><g><use xlink:href="#b4xQQFBdDJ" opacity="1" fill="#434684" fill-opacity="1"></use><g><use xlink:href="#b4xQQFBdDJ" opacity="1" fill-opacity="0" stroke="#000000" stroke-width="1" stroke-opacity="0"></use></g></g><g><use xlink:href="#b7MEcBMOH" opacity="1" fill="#b3b3b3" fill-opacity="1"></use><g><use xlink:href="#b7MEcBMOH" opacity="1" fill-opacity="0" stroke="#000000" stroke-width="1" stroke-opacity="0"></use></g></g><g><use xlink:href="#bvA8U6VTj" opacity="1" fill="#b3b3b3" fill-opacity="1"></use><g><use xlink:href="#bvA8U6VTj" opacity="1" fill-opacity="0" stroke="#000000" stroke-width="1" stroke-opacity="0"></use></g></g><g><use xlink:href="#bfgnOPWpO" opacity="1" fill="#b3b3b3" fill-opacity="1"></use><g><use xlink:href="#bfgnOPWpO" opacity="1" fill-opacity="0" stroke="#000000" stroke-width="1" stroke-opacity="0"></use></g></g><g><use xlink:href="#eq0q8wb2L" opacity="1" fill="#b3b3b3" fill-opacity="1"></use><g><use xlink:href="#eq0q8wb2L" opacity="1" fill-opacity="0" stroke="#000000" stroke-width="1" stroke-opacity="0"></use></g></g><g><use xlink:href="#c88Ge6Pio9" opacity="1" fill="#b3b3b3" fill-opacity="1"></use><g><use xlink:href="#c88Ge6Pio9" opacity="1" fill-opacity="0" stroke="#000000" stroke-width="1" stroke-opacity="0"></use></g></g><g><use xlink:href="#c3mp2VmvMp" opacity="1" fill="#b3b3b3" fill-opacity="1"></use><g><use xlink:href="#c3mp2VmvMp" opacity="1" fill-opacity="0" stroke="#000000" stroke-width="1" stroke-opacity="0"></use></g></g><g><use xlink:href="#a1C0Vb1TgS" opacity="1" fill="#b3b3b3" fill-opacity="1"></use><g><use xlink:href="#a1C0Vb1TgS" opacity="1" fill-opacity="0" stroke="#000000" stroke-width="1" stroke-opacity="0"></use></g></g><g><use xlink:href="#c7ymVBP67K" opacity="1" fill="#b3b3b3" fill-opacity="1"></use><g><use xlink:href="#c7ymVBP67K" opacity="1" fill-opacity="0" stroke="#000000" stroke-width="1" stroke-opacity="0"></use></g></g><g><use xlink:href="#c1eVmeAN5E" opacity="1" fill="#b3b3b3" fill-opacity="1"></use><g><use xlink:href="#c1eVmeAN5E" opacity="1" fill-opacity="0" stroke="#000000" stroke-width="1" stroke-opacity="0"></use></g></g><g><use xlink:href="#b7msaq8Is4" opacity="1" fill="#b3b3b3" fill-opacity="1"></use><g><use xlink:href="#b7msaq8Is4" opacity="1" fill-opacity="0" stroke="#000000" stroke-width="1" stroke-opacity="0"></use></g></g><g><use xlink:href="#ecVBg7Ajo" opacity="1" fill="#f5f5f5" fill-opacity="1"></use><g><use xlink:href="#ecVBg7Ajo" opacity="1" fill-opacity="0" stroke="#000000" stroke-width="1" stroke-opacity="0"></use></g></g><g><use xlink:href="#dxkRttQzy" opacity="1" fill="#f5f5f5" fill-opacity="1"></use><g><use xlink:href="#dxkRttQzy" opacity="1" fill-opacity="0" stroke="#000000" stroke-width="1" stroke-opacity="0"></use></g></g><g><use xlink:href="#a4tsQDV7La" opacity="1" fill="#f5f5f5" fill-opacity="1"></use><g><use xlink:href="#a4tsQDV7La" opacity="1" fill-opacity="0" stroke="#000000" stroke-width="1" stroke-opacity="0"></use></g></g><g><use xlink:href="#d21ycZwfyd" opacity="1" fill="#f5f5f5" fill-opacity="1"></use><g><use xlink:href="#d21ycZwfyd" opacity="1" fill-opacity="0" stroke="#000000" stroke-width="1" stroke-opacity="0"></use></g></g><g><use xlink:href="#g3b0oMfiss" opacity="1" fill="#f5f5f5" fill-opacity="1"></use><g><use xlink:href="#g3b0oMfiss" opacity="1" fill-opacity="0" stroke="#000000" stroke-width="1" stroke-opacity="0"></use></g></g><g><use xlink:href="#a3vos1lgpX" opacity="1" fill="#cccccc" fill-opacity="1"></use><g><use xlink:href="#a3vos1lgpX" opacity="1" fill-opacity="0" stroke="#000000" stroke-width="1" stroke-opacity="0"></use></g></g></g></g></svg>